<?xml version="1.0" standalone="no"?>
<!DOCTYPE svg PUBLIC "-//W3C//DTD SVG 20010904//EN"
 "http://www.w3.org/TR/2001/REC-SVG-20010904/DTD/svg10.dtd">
<svg version="1.0" xmlns="http://www.w3.org/2000/svg"
 width="942.000000pt" height="942.000000pt" viewBox="0 0 942.000000 942.000000"
 preserveAspectRatio="xMidYMid meet">
<metadata>
Created by potrace 1.11, written by Peter Selinger 2001-2013
</metadata>
<g transform="translate(0.000000,942.000000) scale(0.100000,-0.100000)"
fill="#000000" stroke="none">
<path d="M8208 8535 c-2 -1 -50 -5 -108 -8 -191 -12 -352 -52 -495 -125 -213
-110 -339 -265 -424 -520 -31 -92 -64 -257 -77 -387 -8 -81 -13 -1564 -4
-1566 3 -1 156 -2 341 -3 l336 -2 0 696 c0 382 3 728 7 768 9 97 41 216 70
267 50 84 135 143 231 160 22 4 49 9 60 12 30 5 196 4 230 -2 211 -39 297
-132 339 -367 13 -70 15 -225 12 -1013 -1 -511 -5 -944 -8 -961 -41 -198 -84
-274 -189 -328 -72 -38 -155 -48 -409 -50 l-235 -1 0 -322 0 -323 215 -1 c290
0 363 -11 457 -66 92 -54 150 -169 171 -338 9 -76 9 -1993 0 -2060 -21 -154
-96 -292 -191 -352 -169 -106 -464 -93 -600 27 -79 69 -139 211 -153 364 -4
39 -7 413 -8 831 l-1 760 -350 0 -349 0 0 -780 c0 -429 3 -818 7 -865 23 -309
141 -601 323 -796 132 -141 362 -249 599 -280 27 -3 61 -8 75 -10 39 -5 290
-4 340 1 214 24 384 80 520 170 258 171 431 513 466 917 9 102 9 2028 0 2118
-15 157 -57 298 -116 391 -70 108 -217 218 -352 263 l-70 24 81 40 c250 125
371 283 427 554 15 73 18 261 18 1068 0 812 -4 1036 -19 1140 -63 431 -198
667 -466 814 -73 40 -147 68 -259 96 -102 25 -128 29 -255 36 -60 3 -127 7
-147 8 -21 2 -39 2 -40 1z"/>
<path d="M479 8448 c0 -2 -2 -75 -4 -163 -4 -183 -7 -201 -41 -273 -19 -38
-37 -59 -67 -76 -55 -32 -95 -39 -241 -40 l-121 -1 -1 -325 c0 -179 1 -330 3
-336 3 -7 68 -10 198 -10 122 1 196 -3 198 -9 2 -5 3 -1413 2 -3128 l-1 -3117
342 0 341 0 0 3740 0 3740 -303 0 c-167 0 -304 -1 -305 -2z"/>
<path d="M2074 8277 c-1 -150 -4 -179 -23 -228 -45 -119 -110 -150 -314 -152
l-132 -2 0 -335 0 -335 195 -1 c107 -1 197 -2 200 -3 3 -1 5 -1407 5 -3126 l0
-3125 341 0 341 0 0 3740 0 3740 -306 0 -306 0 -1 -173z"/>
<path d="M4665 8438 c-4 -15 -23 -102 -29 -138 -3 -14 -12 -59 -21 -100 -9
-41 -19 -86 -21 -100 -2 -14 -13 -65 -24 -115 -18 -86 -107 -508 -116 -550 -2
-11 -13 -65 -24 -120 -11 -55 -22 -109 -25 -120 -9 -43 -176 -843 -185 -885
-5 -25 -21 -99 -35 -165 -14 -66 -28 -136 -31 -155 -3 -19 -8 -38 -10 -41 -2
-3 -6 -21 -9 -40 -3 -19 -15 -77 -26 -129 -11 -52 -22 -108 -25 -125 -3 -16
-9 -46 -14 -65 -5 -20 -23 -101 -39 -180 -16 -80 -53 -255 -81 -390 -28 -135
-54 -256 -56 -270 -3 -13 -12 -56 -20 -95 -9 -38 -17 -80 -20 -92 -4 -22 -6
-31 -19 -98 -4 -16 -36 -169 -72 -340 -36 -170 -67 -321 -70 -335 -2 -14 -18
-88 -34 -165 -36 -168 -86 -410 -93 -445 -2 -14 -30 -144 -60 -290 -31 -145
-59 -278 -62 -295 -3 -16 -9 -46 -14 -65 -7 -28 -53 -249 -76 -365 -10 -51
-14 -69 -34 -161 -12 -55 -24 -109 -26 -121 -9 -52 -19 -100 -54 -263 -38
-176 -111 -526 -116 -559 -3 -14 -9 -41 -14 -59 l-8 -32 259 0 c234 0 259 2
259 17 0 9 18 102 41 207 22 105 43 202 45 216 3 13 12 56 20 95 9 38 18 81
20 95 7 34 106 510 144 690 17 80 44 213 61 295 17 83 43 209 59 280 16 72 32
146 35 165 3 19 11 55 16 80 11 47 79 376 129 615 33 162 60 291 67 320 2 11
6 31 9 45 3 13 12 56 20 95 9 38 17 80 20 93 2 12 6 32 9 45 2 12 7 36 10 52
3 17 21 102 40 190 48 224 104 494 111 530 3 17 14 68 24 115 10 47 21 96 24
110 2 14 16 81 30 150 15 69 28 134 31 145 2 11 20 97 40 190 20 94 47 226 61
295 14 69 27 132 29 140 7 32 37 176 39 185 10 44 16 74 20 95 3 14 14 70 26
125 12 55 24 111 26 125 3 13 12 56 20 95 9 38 17 79 20 90 2 11 6 31 9 45 3
14 7 34 9 45 3 11 12 56 21 100 9 44 19 89 21 99 2 11 13 65 25 120 11 56 23
110 25 121 2 11 6 31 9 45 19 85 27 128 30 147 2 11 6 29 9 40 3 10 8 33 11
51 3 18 21 104 40 190 18 87 36 169 39 183 2 13 9 44 15 69 5 25 13 61 16 80
3 19 8 42 10 50 2 8 6 27 9 43 3 15 8 36 11 47 6 20 1 20 -250 20 -196 0 -257
-3 -260 -12z"/>
<path d="M5869 8443 c0 -5 -2 -80 -4 -168 -5 -230 -32 -303 -133 -351 -47 -22
-66 -25 -195 -27 l-142 -2 0 -335 0 -335 190 -1 c105 0 195 -3 200 -6 7 -4 10
-1128 10 -3127 l-1 -3121 342 0 341 0 0 3740 0 3740 -304 0 c-167 0 -303 -3
-304 -7z"/>
</g>
</svg>
